<?xml version="1.0" standalone="no"?>
<!DOCTYPE svg PUBLIC "-//W3C//DTD SVG 1.0//EN" "http://www.w3.org/TR/2001/REC-SVG-20010904/DTD/svg10.dtd">
<svg xmlns="http://www.w3.org/2000/svg" xmlns:xlink="http://www.w3.org/1999/xlink" id="body_1" width="360" height="292">

<g transform="matrix(0.49922872 0 0 0.49922872 -0 0.59099066)">
    <path transform="matrix(1 0 0 1 -239.4438 -158.73267)"  d="M719.6347 741.26733L719.4817 741.2528L480.3662 719.04034L262.93027 739.239C 251.10818 740.33716 240.63428 731.64374 239.53612 719.82166C 239.47473 719.16077 239.44403 718.4981 239.44397 717.8337L239.44397 717.8337L239.44397 200.70651C 239.39845 189.58647 247.87674 180.28423 258.95334 179.30112L258.95334 179.30112L480.3662 158.73267L480.51923 158.7472L719.63464 180.95964L937.0696 160.761C 948.89166 159.66277 959.3656 168.35614 960.46387 180.1782C 960.52527 180.83916 960.556 181.50189 960.556 182.1664L960.556 182.1664L960.556 699.2931C 960.6016 710.41315 952.1234 719.7156 941.04675 720.69885L941.04675 720.69885L719.6347 741.26733z" stroke="none" fill="#3F3D56" fill-rule="nonzero" />
    <path transform="matrix(1 0 0 1 -239.4438 -158.73267)"  d="M572.76416 350.0441C 526.4777 316.3338 477.7769 284.3682 428.026 255.04016L428.026 255.04016L425.52893 253.5684L425.52893 353.03726L576.8738 353.03726L572.76416 350.0441zM428.83624 349.7299L428.83624 259.36456C 476.16476 287.36136 522.509 317.73944 566.70374 349.72992zM807.01624 554.46375C 786.99854 533.65216 766.46265 513.31464 745.40857 493.45123C 739.60425 487.96936 733.76404 482.5315 727.888 477.1377C 692.02783 444.19638 654.98816 412.8674 616.76886 383.15076L616.76886 383.15076L616.3223 382.8035L425.52893 382.8035L425.52893 557.2667L809.712 557.2667zM428.83624 553.9594L428.83624 386.11087L615.1894 386.11087C 652.042 414.7774 687.8966 445.048 722.7533 476.92273zM807.01624 554.46375C 786.99854 533.65216 766.46265 513.31464 745.40857 493.45123C 739.60425 487.96936 733.76404 482.5315 727.888 477.1377C 692.02783 444.19638 654.98816 412.8674 616.76886 383.15076L616.76886 383.15076L616.3223 382.8035L425.52893 382.8035L425.52893 557.2667L809.712 557.2667zM428.83624 553.9594L428.83624 386.11087L615.1894 386.11087C 652.042 414.7774 687.8966 445.048 722.7533 476.92273zM572.76416 350.0441C 526.4777 316.3338 477.7769 284.3682 428.026 255.04016L428.026 255.04016L425.52893 253.5684L425.52893 353.03726L576.8738 353.03726zM428.83624 349.7299L428.83624 259.36456C 476.16476 287.36136 522.509 317.73944 566.70374 349.72992zM572.76416 350.0441C 526.4777 316.3338 477.7769 284.3682 428.026 255.04016L428.026 255.04016L425.52893 253.5684L425.52893 353.03726L576.8738 353.03726zM428.83624 349.7299L428.83624 259.36456C 476.16476 287.36136 522.509 317.73944 566.70374 349.72992zM807.01624 554.46375C 786.99854 533.65216 766.46265 513.31464 745.40857 493.45123C 739.60425 487.96936 733.76404 482.5315 727.888 477.1377C 692.02783 444.19638 654.98816 412.8674 616.76886 383.15076L616.76886 383.15076L616.3223 382.8035L425.52893 382.8035L425.52893 557.2667L809.712 557.2667zM428.83624 553.9594L428.83624 386.11087L615.1894 386.11087C 652.042 414.7774 687.8966 445.048 722.7533 476.92273zM261.83112 587.033L261.83112 590.3404L392.45532 590.3404L392.45532 638.2971L261.83112 638.2971L261.83112 641.6045L395.76266 641.6045L395.76266 587.033zM425.5289 671.3707L425.5289 704.88257L428.83627 704.57654L428.83627 674.678L938.1698 674.678L938.1698 671.3706zM938.1698 590.3404L938.1698 587.033L425.52893 587.033L425.52893 641.6045L938.1698 641.6045L938.1698 638.2971L428.83627 638.2971L428.83627 590.34033zM629.30383 349.7299C 565.85425 300.78503 498.84485 256.6327 428.83627 217.6422L428.83627 217.6422L428.83627 184.1552L425.5289 184.46112L425.5289 218.20734L428.07562 221.00746C 497.79913 259.89197 564.53674 303.90833 627.7325 352.69L627.7325 352.69L628.179 353.03726L938.1698 353.03726L938.1698 349.7299zM392.45532 349.7299L261.83112 349.7299L261.83112 353.03726L395.76266 353.03726L395.76266 187.22276L392.4553 187.52869zM938.1698 382.8035L665.6517 382.8035L669.2154 385.7305C 702.7683 413.33875 735.7123 442.61993 768.04736 473.57404L768.04736 473.57404L770.774 475.1864L857.594 475.1864L857.594 471.87903L851.5582 471.87903C 829.9612 448.4629 807.8955 425.7248 785.3613 403.66473L785.3613 403.66473L938.1698 403.66473zM261.83112 671.37067L261.83112 674.678L392.45532 674.678L392.45532 707.94995L395.7627 707.64404L395.7627 671.37067zM261.83112 382.8035L261.83112 386.11087L392.45532 386.11087L392.45532 553.9594L261.83112 553.9594L261.83112 557.2668L395.76266 557.2668L395.76266 382.8035zM572.76416 350.0441C 526.4777 316.3338 477.7769 284.3682 428.026 255.04016L428.026 255.04016L425.52893 253.5684L425.52893 353.03726L576.8738 353.03726zM428.83624 349.7299L428.83624 259.36456C 476.16476 287.36136 522.509 317.73944 566.70374 349.72992zM807.01624 554.46375C 786.99854 533.65216 766.46265 513.31464 745.40857 493.45123C 739.60425 487.96936 733.76404 482.5315 727.888 477.1377C 692.02783 444.19638 654.98816 412.8674 616.76886 383.15076L616.76886 383.15076L616.3223 382.8035L425.52893 382.8035L425.52893 557.2667L809.712 557.2667zM428.83624 553.9594L428.83624 386.11087L615.1894 386.11087C 652.042 414.7774 687.8966 445.048 722.7533 476.92273zM572.76416 350.0441C 526.4777 316.3338 477.7769 284.3682 428.026 255.04016L428.026 255.04016L425.52893 253.5684L425.52893 353.03726L576.8738 353.03726zM428.83624 349.7299L428.83624 259.36456C 476.16476 287.36136 522.509 317.73944 566.70374 349.72992zM807.01624 554.46375C 786.99854 533.65216 766.46265 513.31464 745.40857 493.45123C 739.60425 487.96936 733.76404 482.5315 727.888 477.1377C 692.02783 444.19638 654.98816 412.8674 616.76886 383.15076L616.76886 383.15076L616.3223 382.8035L425.52893 382.8035L425.52893 557.2667L809.712 557.2667zM428.83624 553.9594L428.83624 386.11087L615.1894 386.11087C 652.042 414.7774 687.8966 445.048 722.7533 476.92273z" stroke="none" fill="#FFFFFF" fill-rule="nonzero" />
    <path transform="matrix(1 0 0 1 -239.4438 -158.73267)"  d="M608.7796 376.37775C 608.7796 418.25897 532.9469 511.55774 532.9469 511.55774C 532.9469 511.55774 457.11423 418.25897 457.11423 376.37775C 457.13928 334.51422 491.08337 300.59042 532.9469 300.59042C 574.8104 300.59042 608.7545 334.51422 608.77954 376.37775L608.77954 376.37775L608.7796 376.37775z" stroke="none" fill="#7383BF" fill-rule="nonzero" />
    <path transform="matrix(1 0 0 1 -239.4438 -158.73267)"  d="M567.6142 373.0807C 567.6142 387.10193 559.168 399.74255 546.21405 405.10825C 533.26013 410.47394 518.3495 407.50803 508.435 397.5935C 498.52048 387.67902 495.55457 372.76837 500.92026 359.81445C 506.28595 346.8605 518.9266 338.4143 532.9478 338.4143C 542.14325 338.41006 550.9632 342.06104 557.46533 348.56317C 563.96747 355.0653 567.6184 363.88528 567.6142 373.0807z" stroke="none" fill="#FFFFFF" fill-rule="nonzero" />
    <path d="M313.94498 387.1146C 313.945 392.75946 311.94922 397.57764 307.95767 401.56915C 303.96616 405.5607 299.14798 407.55646 293.5031 407.55646C 287.85828 407.55646 283.0401 405.5607 279.04855 401.56915C 275.057 397.57764 273.06125 392.75946 273.06125 387.1146C 273.06125 381.46976 275.057 376.65155 279.04855 372.66003C 283.0401 368.66852 287.85828 366.67273 293.5031 366.67273C 299.14798 366.67273 303.96616 368.66852 307.95767 372.66003C 311.94922 376.65155 313.945 381.46976 313.94498 387.1146C 313.945 387.35248 313.94083 387.59027 313.9325 387.828" stroke="none" fill="#7383BF" fill-rule="nonzero" />
    <path d="M519.5872 100.27214C 519.5872 108.618065 516.6365 115.741745 510.73505 121.643196C 504.83362 127.54465 497.70993 130.49538 489.36398 130.49538C 481.01807 130.49538 473.89438 127.54465 467.99292 121.643196C 462.0915 115.741745 459.14075 108.618065 459.14075 100.27214C 459.14075 91.92622 462.0915 84.802536 467.99292 78.901085C 473.89438 72.99963 481.01807 70.048904 489.36398 70.048904C 497.70993 70.048904 504.83362 72.99963 510.73505 78.901085C 516.6365 84.802536 519.5872 91.92622 519.5872 100.27214C 519.5872 100.62385 519.58105 100.97544 519.5688 101.32692" stroke="none" fill="#FF6584" fill-rule="nonzero" />
    <path transform="matrix(1 0 0 1 -239.4438 -158.73267)"  d="M823.5845 352.14172L675.31836 352.14172C 675.13275 352.14413 674.94727 352.12943 674.7643 352.0978L674.7643 352.0978L744.8873 230.63457C 745.7586 229.09451 747.3912 228.14241 749.16064 228.14241C 750.9301 228.14241 752.5627 229.09451 753.43396 230.63457L753.43396 230.63457L800.49536 312.14584L802.75 316.04614L823.5845 352.14172z" stroke="none" fill="#FFFFFF" fill-rule="nonzero" />
    <path d="M584.141 193.409L533.519 193.409L558.369 157.313L560.157 154.713L561.052 153.413L563.306 157.313L584.141 193.409L584.141 193.409" stroke="none" fill="#000000" fill-rule="nonzero" fill-opacity="0.2" />
    <path transform="matrix(1 0 0 1 -239.4438 -158.73267)"  d="M906.138 352.14172L777.9 352.14172L802.75 316.04617L804.53827 313.44595L836.9201 266.4065C 839.043 263.32358 844.15015 263.1316 846.6461 265.825C 846.8137 266.00876 846.9695 266.20297 847.1124 266.4065L847.1124 266.4065L906.138 352.14172z" stroke="none" fill="#FFFFFF" fill-rule="nonzero" />
    <path d="M691.5064 349.33487C 691.5064 353.5589 690.013 357.1643 687.0262 360.15112C 684.0393 363.13797 680.4339 364.63138 676.2099 364.63138C 671.9859 364.63138 668.3805 363.13797 665.3936 360.15112C 662.40686 357.1643 660.91345 353.5589 660.9134 349.33487C 660.91345 345.11084 662.40686 341.50543 665.3936 338.51862C 668.3805 335.5318 671.9859 334.03836 676.2099 334.03836C 680.4339 334.03836 684.0393 335.5318 687.0262 338.51862C 690.013 341.50543 691.5064 345.11084 691.5064 349.33487C 691.5064 349.51288 691.5033 349.69083 691.4971 349.8687" stroke="none" fill="#FFFFFF" fill-rule="nonzero" />
    <path d="M677.685 395.409L674.552 395.409L675.98 347.031L677.685 395.409L677.685 395.409" stroke="none" fill="#CBCBCB" fill-rule="nonzero" />
    <path d="M676.256 356.2L679.62 351.546L676.21 357.352L675.842 356.707L676.256 356.2L676.256 356.2" stroke="none" fill="#CBCBCB" fill-rule="nonzero" />
    <path d="M675.888 360.899L672.524 356.246L675.934 362.051L676.302 361.406L675.888 360.899L675.888 360.899" stroke="none" fill="#CBCBCB" fill-rule="nonzero" />
    <path d="M655.3072 327.3615C 655.3072 333.60004 653.10156 338.92493 648.69025 343.3362C 644.279 347.7475 638.9541 349.95316 632.7156 349.95316C 626.47705 349.95316 621.15216 347.7475 616.7409 343.3362C 612.32965 338.92493 610.124 333.60004 610.12396 327.3615C 610.124 321.12302 612.32965 315.7981 616.7409 311.3868C 621.15216 306.97552 626.47705 304.76987 632.7156 304.76987C 638.9541 304.76987 644.279 306.97552 648.69025 311.3868C 653.10156 315.7981 655.3072 321.12302 655.3072 327.3615C 655.3072 327.62442 655.3026 327.8872 655.29346 328.14993" stroke="none" fill="#FFFFFF" fill-rule="nonzero" />
    <path d="M634.893 395.409L630.266 395.409L632.376 323.959L634.893 395.409L634.893 395.409" stroke="none" fill="#CBCBCB" fill-rule="nonzero" />
    <path d="M632.784 337.5L637.751 330.628L632.716 339.202L632.172 338.249L632.784 337.5L632.784 337.5" stroke="none" fill="#CBCBCB" fill-rule="nonzero" />
    <path d="M632.24 344.441L627.272 337.569L632.308 346.142L632.852 345.19L632.24 344.441L632.24 344.441" stroke="none" fill="#CBCBCB" fill-rule="nonzero" />
    <path d="M123.50639 349.33487C 123.5064 353.5589 122.012985 357.1643 119.02615 360.15112C 116.03933 363.13797 112.433914 364.63138 108.20989 364.63138C 103.985886 364.63138 100.38046 363.13797 97.39363 360.15112C 94.40681 357.1643 92.91339 353.5589 92.91339 349.33487C 92.91339 345.11084 94.40681 341.50543 97.39363 338.51862C 100.38046 335.5318 103.985886 334.03836 108.20989 334.03836C 112.433914 334.03836 116.03933 335.5318 119.02615 338.51862C 122.012985 341.50543 123.5064 345.11084 123.50639 349.33487C 123.5064 349.51288 123.503296 349.69083 123.49707 349.8687" stroke="none" fill="#FFFFFF" fill-rule="nonzero" />
    <path d="M109.685 395.409L106.552 395.409L107.98 347.031L109.685 395.409L109.685 395.409" stroke="none" fill="#CBCBCB" fill-rule="nonzero" />
    <path d="M108.256 356.2L111.62 351.546L108.21 357.352L107.842 356.707L108.256 356.2L108.256 356.2" stroke="none" fill="#CBCBCB" fill-rule="nonzero" />
    <path d="M107.888 360.899L104.524 356.246L107.934 362.051L108.302 361.406L107.888 360.899L107.888 360.899" stroke="none" fill="#CBCBCB" fill-rule="nonzero" />
    <path d="M87.3072 327.3615C 87.3072 333.60004 85.101555 338.92493 80.69026 343.3362C 76.27898 347.7475 70.95407 349.95316 64.71557 349.95316C 58.477062 349.95316 53.152164 347.7475 48.740875 343.3362C 44.329586 338.92493 42.12394 333.60004 42.12394 327.3615C 42.12394 321.12302 44.329586 315.7981 48.740875 311.3868C 53.152164 306.97552 58.477062 304.76987 64.71557 304.76987C 70.95407 304.76987 76.27898 306.97552 80.69026 311.3868C 85.101555 315.7981 87.3072 321.12302 87.3072 327.3615C 87.3072 327.62442 87.30261 327.8872 87.29344 328.14993" stroke="none" fill="#FFFFFF" fill-rule="nonzero" />
    <path d="M66.893 395.409L62.266 395.409L64.376 323.959L66.893 395.409L66.893 395.409" stroke="none" fill="#CBCBCB" fill-rule="nonzero" />
    <path d="M64.784 337.5L69.751 330.628L64.716 339.202L64.172 338.249L64.784 337.5L64.784 337.5" stroke="none" fill="#CBCBCB" fill-rule="nonzero" />
    <path d="M64.24 344.441L59.272 337.569L64.308 346.142L64.852 345.19L64.24 344.441L64.24 344.441" stroke="none" fill="#CBCBCB" fill-rule="nonzero" />
</g>
</svg>