<svg xmlns="http://www.w3.org/2000/svg" width="360" height="334.445" viewBox="0 0 360 334.445">
    <g id="undraw_annotation_re_h774_1_" data-name="undraw_annotation_re_h774 (1)" transform="translate(0.003 0.515)">
        <path id="Path_26" data-name="Path 26" d="M358.46,259.806H249.172a11.06,11.06,0,0,1-11.047-11.048h0V104.049A11.06,11.06,0,0,1,249.172,93H358.46a11.06,11.06,0,0,1,11.047,11.048h0v144.71A11.06,11.06,0,0,1,358.46,259.806Z" transform="translate(-120.686 -53.547)" fill="#e6e6e6"/>
        <path id="Path_27" data-name="Path 27" d="M350.778,250.6H256.854a9.821,9.821,0,0,1-9.809-9.809h0V112.017a9.82,9.82,0,0,1,9.809-9.808h93.924a9.82,9.82,0,0,1,9.809,9.808h0V240.79A9.821,9.821,0,0,1,350.778,250.6Z" transform="translate(-120.647 -53.547)" fill="#fff"/>
        <path id="Path_28" data-name="Path 28" d="M341.408,126.681H266.224a2.452,2.452,0,1,1,0-4.9h75.185a2.452,2.452,0,1,1,0,4.9Z" transform="translate(-120.587 -55.376)" fill="#e4e4e4"/>
        <path id="Path_29" data-name="Path 29" d="M341.408,136.37H266.224a2.452,2.452,0,1,1,0-4.9h75.185a2.452,2.452,0,1,1,0,4.9Z" transform="translate(-120.587 -55.636)" fill="#e4e4e4"/>
        <path id="Path_30" data-name="Path 30" d="M298.814,146.059h-32.59a2.452,2.452,0,1,1,0-4.9h32.59a2.452,2.452,0,1,1,0,4.9Z" transform="translate(-117.894 -55.896)" fill="#e4e4e4"/>
        <path id="Path_31" data-name="Path 31" d="M341.408,166.352H266.224a2.452,2.452,0,1,1,0-4.9h75.185a2.452,2.452,0,1,1,0,4.9Z" transform="translate(-120.587 -56.44)" fill="#e4e4e4"/>
        <path id="Path_32" data-name="Path 32" d="M341.408,176.041H266.224a2.452,2.452,0,1,1,0-4.9h75.185a2.452,2.452,0,1,1,0,4.9Z" transform="translate(-120.587 -56.7)" fill="#e4e4e4"/>
        <path id="Path_33" data-name="Path 33" d="M298.814,185.73h-32.59a2.452,2.452,0,0,1,0-4.9h32.59a2.452,2.452,0,1,1,0,4.9Z" transform="translate(-117.894 -56.96)" fill="#e4e4e4"/>
        <path id="Path_34" data-name="Path 34" d="M341.408,206.023H266.224a2.452,2.452,0,1,1,0-4.9h75.185a2.452,2.452,0,1,1,0,4.9Z" transform="translate(-120.587 -57.504)" fill="#e4e4e4"/>
        <path id="Path_35" data-name="Path 35" d="M341.408,215.712H266.224a2.452,2.452,0,1,1,0-4.9h75.185a2.452,2.452,0,1,1,0,4.9Z" transform="translate(-120.587 -57.764)" fill="#e4e4e4"/>
        <path id="Path_36" data-name="Path 36" d="M298.814,225.4h-32.59a2.452,2.452,0,1,1,0-4.9h32.59a2.452,2.452,0,1,1,0,4.9Z" transform="translate(-117.894 -58.024)" fill="#e4e4e4"/>
        <path id="Path_37" data-name="Path 37" d="M184.841,122.132,103.157,52.263H48.279V51.234h55.258L185.51,121.35l-.669.782h0" fill="#2f2e41"/>
        <path id="Path_38" data-name="Path 38" d="M56.513,51.749a8.234,8.234,0,0,1-14.057,5.823A8.234,8.234,0,0,1,54.1,45.926a7.934,7.934,0,0,1,2.411,5.823c0,.1,0,.192,0,.288" fill="#7383bf"/>
        <path id="Path_39" data-name="Path 39" d="M174.955,132.993H99.77a2.452,2.452,0,1,1,0-4.9h75.185a2.452,2.452,0,1,1,0,4.9Z" transform="translate(-97.319 -55.546)" fill="#7383bf"/>
        <path id="Path_40" data-name="Path 40" d="M174.955,142.682H99.77a2.452,2.452,0,1,1,0-4.9h75.185a2.452,2.452,0,1,1,0,4.9Z" transform="translate(-97.319 -55.805)" fill="#7383bf"/>
        <path id="Path_41" data-name="Path 41" d="M132.361,152.371H99.77a2.452,2.452,0,0,1,0-4.9h32.591a2.452,2.452,0,0,1,0,4.9Z" transform="translate(-97.319 -56.065)" fill="#7383bf"/>
        <path id="Path_42" data-name="Path 42" d="M206.5,77.835,288.471,7.72h55.258V8.749H288.851L207.166,78.617l-.669-.782h0" transform="translate(-35.015)" fill="#2f2e41"/>
        <path id="Path_43" data-name="Path 43" d="M351.963,8.234a7.934,7.934,0,0,1-2.412,5.823,8.234,8.234,0,0,1-11.645,0,7.932,7.932,0,0,1-2.412-5.823,7.932,7.932,0,0,1,2.412-5.823,8.234,8.234,0,0,1,11.645,0,7.934,7.934,0,0,1,2.412,5.823c0,.1,0,.192,0,.287" transform="translate(-35.985 -0.515)" fill="#7383bf"/>
        <path id="Path_44" data-name="Path 44" d="M497.036,89.189H421.851a2.452,2.452,0,1,1,0-4.9h75.185a2.452,2.452,0,1,1,0,4.9Z" transform="translate(-142.806 -53.547)" fill="#7383bf"/>
        <path id="Path_45" data-name="Path 45" d="M497.036,98.878H421.851a2.452,2.452,0,1,1,0-4.9h75.185a2.452,2.452,0,1,1,0,4.9Z" transform="translate(-142.806 -53.547)" fill="#7383bf"/>
        <path id="Path_46" data-name="Path 46" d="M454.442,108.568H421.851a2.452,2.452,0,0,1,0-4.9h32.591a2.452,2.452,0,0,1,0,4.9Z" transform="translate(-142.806 -53.547)" fill="#7383bf"/>
        <path id="Path_47" data-name="Path 47" d="M438.091,286.082a4.284,4.284,0,0,1,.855-6.513h0l-3.511-14.813,7.431,2.715,2.194,13.651a4.307,4.307,0,0,1-6.969,4.961h0Z" transform="translate(-142.806 -59.526)" fill="#9e616a"/>
        <path id="Path_48" data-name="Path 48" d="M420.222,224.006l2.982,7.669s-1.278,7.668.852,9.372,1.278,1.7,1.278,2.982a6.554,6.554,0,0,0,2.556,4.686c1.7,1.278,9.372,27.265,9.372,27.265h7.669a24.045,24.045,0,0,1,0-5.965c.426-2.982-1.278-10.65-2.13-11.928s0-2.982,0-5.538-1.7-3.834-1.7-8.095-5.112-37.49-4.686-41.324-4.26-7.242-4.26-7.242h-4.26Z" transform="translate(-142.806 -58.456)" fill="#e6e7e8"/>
        <path id="Path_49" data-name="Path 49" d="M304.86,186.724l-7.088,31.631,45.42-2.826-12.35-31.065-25.982,2.259h0" transform="translate(-37.618 -5.411)" fill="#9e616a"/>
        <path id="Path_50" data-name="Path 50" d="M501.185,359.156a48.491,48.491,0,0,1-6.258,13.768c-6.241,9.437-15.173,16.653-24.99,22.429-.68.405-1.37.8-2.06,1.19h-6.886l-.24-.55v-.005l-.28-.635-.035-.075-.015.075-.275,1.19h-3.381c-.28-.4-.555-.79-.825-1.19-.4-.585-.775-1.175-1.135-1.775a28.818,28.818,0,0,1-1.7-3.261c-.06-.125-.11-.25-.16-.375h0l.225-.245-.935-4.091,1.88-.31-2.06-6.356c.075-.235.16-.47.25-.705a15.82,15.82,0,0,1,5.9-6.946,89.88,89.88,0,0,1,8.572-5c1.33-.745,2.641-1.53,3.916-2.36h0v-.005q2.445-1.583,4.746-3.386a.666.666,0,0,0,.075-.055.444.444,0,0,0,.06-.05,70.462,70.462,0,0,0,17.158-19.469h0a.006.006,0,0,0,0,0c.15-.24.29-.48.43-.725h0v-.005a68.126,68.126,0,0,0,4.706-9.827h0v0c.1-.25.19-.5.285-.75q.2.33.375.66l0,0a.005.005,0,0,1,0,0C503.391,338.992,503.851,349.444,501.185,359.156Z" transform="translate(-142.806 -62.613)" fill="#f0f0f0"/>
        <path id="Path_51" data-name="Path 51" d="M498.538,330.315a60.7,60.7,0,0,1-1.435,13.773,59.188,59.188,0,0,1-1.68,6.121,60.655,60.655,0,0,1-5.066,11.3c-.115.2-.225.385-.345.575h0v.005a51.143,51.143,0,0,1-2.876,4.331,23.864,23.864,0,0,1-5.7,5.731,15.042,15.042,0,0,1-5.991,2.315c-.4.075-.81.13-1.225.18-1.655.2-3.366.27-5.006.62a10.943,10.943,0,0,0-2.41.775,9.194,9.194,0,0,0-4.776,6.531c-.115.48-.205.965-.275,1.45-.545,3.726.055,7.6-.255,11.327-.035.4-.08.8-.135,1.19h-.37l-.24-.55v-.005c.025-.21.045-.42.065-.635a48.15,48.15,0,0,0,.045-5.506c-.02-.825-.035-1.655-.025-2.486.01-.665.035-1.33.085-1.99h0v-.005c.035-.41.075-.815.13-1.22a15.82,15.82,0,0,1,.91-3.626,9.081,9.081,0,0,1,5.161-5.341,13.541,13.541,0,0,1,2.235-.625c1.675-.32,3.406-.4,5.091-.61.18-.02.36-.045.535-.075.225-.035.445-.075.665-.115a14.325,14.325,0,0,0,6.081-2.635,25.938,25.938,0,0,0,5.491-5.961c.82-1.175,1.6-2.375,2.325-3.611a.005.005,0,0,1,0,0h0c.035-.06.07-.115.105-.175h0l.005-.01a59.777,59.777,0,0,0,6.731-17.088c.045-.22.1-.44.145-.66a60.437,60.437,0,0,0,1.335-13.2h0v0c0-.21-.005-.415-.01-.625-.01-.43.655-.525.665-.1.005.21.01.42.005.63l0,0A.005.005,0,0,1,498.538,330.315Z" transform="translate(-142.806 -62.613)" fill="#fff"/>
        <path id="Path_52" data-name="Path 52" d="M489.726,361.951a9.01,9.01,0,0,0,11.349-2.709c.255-.35-.275-.761-.53-.411a8.346,8.346,0,0,1-10.564,2.5C489.6,361.131,489.344,361.754,489.726,361.951Z" transform="translate(-142.806 -62.613)" fill="#fff"/>
        <path id="Path_53" data-name="Path 53" d="M475.713,373.953a17.367,17.367,0,0,1,.615-12.643c.178-.395-.445-.649-.622-.255a18.064,18.064,0,0,0-.613,13.157C475.232,374.623,475.852,374.361,475.713,373.953Z" transform="translate(-142.806 -62.613)" fill="#fff"/>
        <path id="Path_54" data-name="Path 54" d="M496.731,343.669a5.1,5.1,0,0,1-3.512-3.33c-.134-.412-.753-.15-.62.259a5.715,5.715,0,0,0,3.877,3.693.347.347,0,0,0,.438-.184.338.338,0,0,0-.183-.439Z" transform="translate(-142.806 -62.613)" fill="#fff"/>
        <path id="Path_55" data-name="Path 55" d="M470.693,363.927v.005a65.614,65.614,0,0,1-1.335,10.622h0v.005c-.04.24-.1.475-.145.71a92.226,92.226,0,0,1-5.056,15.808q-.893,2.16-1.87,4.276c-.18.4-.365.8-.555,1.19h-.74l-.24-.55v-.005l-.28-.635-.035-.075-.015.075-.275,1.19h-7.151l-1.39-1.19-2.025-1.735,2.831-3.091.465-.51.07-.075.225-.245-.935-4.091,1.88-.31-2.06-6.356-.975-3.006-.245-.755-1.425-4.4-4.3.805-.7-2.451a67.984,67.984,0,0,0,3.211-9.207c.005-.025.015-.045.02-.07a70.8,70.8,0,0,0,2.01-25.985h0v-.005c-.03-.28-.065-.565-.105-.84h0v-.01a66.828,66.828,0,0,0-2.16-10.672c-.07-.265-.15-.525-.225-.785l.685.3h0l.005.005h.01c.365.16.73.33,1.085.51,8.532,4.146,14.808,11.927,18.374,20.9.01.025.02.045.03.07a48.209,48.209,0,0,1,3.286,14.718A57.391,57.391,0,0,1,470.693,363.927Z" transform="translate(-134.26 -63.209)" fill="#f0f0f0"/>
        <path id="Path_56" data-name="Path 56" d="M457.715,396.543h-.79c-.25-.405-.52-.8-.79-1.19q-.645-.908-1.33-1.775c-.4-.5-.79-1-1.185-1.49-.41-.515-.815-1.03-1.21-1.56h0l.465-.51c.075.1.15.2.23.3,1.28,1.685,2.666,3.306,3.851,5.036C457.22,395.743,457.475,396.138,457.715,396.543Z" transform="translate(-140.013 -71.734)" fill="#fff"/>
        <path id="Path_57" data-name="Path 57" d="M446.992,321.843c.13.165.265.335.39.505q1.463,1.9,2.766,3.916a59,59,0,0,1,4.111,7.427c.1.2.19.405.28.61a59.635,59.635,0,0,1,4.921,17.724c.01.06.015.115.02.175q.248,2.145.32,4.306a25.884,25.884,0,0,1-.8,8.062c-.1.345-.21.685-.33,1.015a13.635,13.635,0,0,1-1.125,2.325,13.954,13.954,0,0,1-1.07,1.545c-.235.3-.48.6-.74.88-.15.165-.305.33-.46.5-.13.125-.255.255-.385.38-1.35,1.31-2.841,2.525-4.061,3.971h0l.245.755a40.559,40.559,0,0,1,4.056-4.026,18.925,18.925,0,0,0,2.33-2.641c.09-.13.185-.26.27-.4a13.354,13.354,0,0,0,1.2-2.145c.17-.375.325-.76.465-1.16a23.944,23.944,0,0,0,1.1-8,51.7,51.7,0,0,0-.31-5.2c-.02-.225-.045-.445-.075-.67a61.306,61.306,0,0,0-9.642-26.165q-1.238-1.883-2.626-3.676c-.12-.165-.245-.325-.375-.49C447.2,321.028,446.727,321.5,446.992,321.843Z" transform="translate(-135.766 -65.613)" fill="#fff"/>
        <path id="Path_58" data-name="Path 58" d="M459.871,352.432a9.012,9.012,0,0,0,7.431-9,.337.337,0,0,0-.673-.009,8.343,8.343,0,0,1-6.929,8.354c-.426.074-.253.724.171.65h0Z" transform="translate(-140.414 -73.613)" fill="#fff"/>
        <path id="Path_59" data-name="Path 59" d="M455.909,370.452a17.366,17.366,0,0,1-7.121-10.464c-.1-.422-.746-.251-.65.171a18.067,18.067,0,0,0,7.432,10.874C455.928,371.276,456.265,370.695,455.909,370.452Z" transform="translate(-126.806 -75.246)" fill="#fff"/>
        <path id="Path_60" data-name="Path 60" d="M454.458,333.618a5.1,5.1,0,0,1-4.809-.545c-.355-.248-.692.334-.339.581a5.716,5.716,0,0,0,5.319.614.348.348,0,0,0,.24-.411.338.338,0,0,0-.411-.24Z" transform="translate(-142.806 -62.613)" fill="#fff"/>
        <path id="Path_61" data-name="Path 61" d="M312.423,332.714h-5.1l-2.427-19.68h7.53v19.679h0" transform="translate(-34.85 -9.067)" fill="#9e616a"/>
        <path id="Path_62" data-name="Path 62" d="M412.486,395.948h-3.62l-.646-3.418-1.655,3.418h-9.6a2.159,2.159,0,0,1-1.227-3.935h0l7.668-5.3v-3.456l8.066.482Z" transform="translate(-132.212 -62.613)" fill="#2f2e41"/>
        <path id="Path_63" data-name="Path 63" d="M360.646,330.176l-4.986,1.082-6.544-18.718,7.359-1.6,4.171,19.232h0" transform="translate(-37.179 -8.139)" fill="#9e616a"/>
        <path id="Path_64" data-name="Path 64" d="M462.7,392.608l-3.538.768-1.356-3.2-.893,3.691-9.384,2.036a2.158,2.158,0,0,1-2.033-3.585h0l6.371-6.8-.733-3.377,7.984-1.24Z" transform="translate(-134.765 -62.614)" fill="#2f2e41"/>
        <path id="Path_65" data-name="Path 65" d="M493.9,395.948a.592.592,0,0,1-.6.6H353.129a.6.6,0,1,1,0-1.19H493.3a.593.593,0,0,1,.6.6Z" transform="translate(-142.806 -62.613)" fill="#ccc"/>
        <path id="Path_66" data-name="Path 66" d="M393.931,298.352c3.581,19.679,4.476,28.176,4.476,28.176s-2.686,3.131-.9,4.921,0,5.366,0,5.366h0l4.026,43.384,3.241-.525,7.807-1.255,2.816-.455-1.79-40.7s1.79-3.581.9-4.476.9-6.261.9-6.261h0l2.235-42.488L431.5,330.554s-1.345,1.79,0,3.131,4.021,8.052,4.021,8.052h0l8.247,28.856.7,2.451,4.3-.805,4.681-.88.86-.16,1.53-.29.985-.185.335-.06,1.62-.305-.49-2.175-.255-1.145-6.976-30.986-.16-.715-.17-.755s.9-2.235-.445-3.581a3.494,3.494,0,0,1-.9-3.131,1.162,1.162,0,0,0,.12-.15,1.856,1.856,0,0,0,.32-.73,2.421,2.421,0,0,0-.89-2.25,3.794,3.794,0,0,1-.635-.91c-1.36-2.576-2.045-8.032-2.045-8.032s-1.21-43.214-5.171-49.815c-.21-.345-4.415-6.969-4.635-7.1-4.471-2.681-41.365,1.022-41.365,1.022s-2.109,5.668-2.2,6.258C392.37,269.471,390.9,281.659,393.931,298.352Z" transform="translate(-134.114 -66.391)" fill="#2f2e41"/>
        <path id="Path_67" data-name="Path 67" d="M394.141,286.027a4.284,4.284,0,0,0-.855-6.513h0L396.8,264.7l-7.431,2.715-2.194,13.651a4.307,4.307,0,0,0,6.969,4.961Z" transform="translate(-130.609 -59.525)" fill="#9e616a"/>
        <path id="Path_68" data-name="Path 68" d="M400.081,195.833A95.514,95.514,0,0,1,411,183.108c3.834-1.278,10.477-.533,12.781,0,10.651,14.059,11.321,13.125,14.093,20.98a11.065,11.065,0,0,1,.759,5.592c-1.278,6.39.771,38.678,1.2,40.382s3.408,3.834.426,3.834-48.141-1.7-47.288-2.982S400.081,195.833,400.081,195.833Z" transform="translate(-135.001 -57.85)" fill="#7383bf"/>
        <path id="Path_69" data-name="Path 69" d="M404.341,195.833h-4.26s-4.686,3.408-4.26,7.242-4.686,37.064-4.686,41.324-1.7,5.539-1.7,8.095.852,4.26,0,5.538-2.557,8.947-2.13,11.929a23.991,23.991,0,0,1,0,5.964h7.669s7.669-25.987,9.372-27.265a6.552,6.552,0,0,0,2.557-4.686c0-1.278-.852-1.278,1.278-2.982s.852-9.373.852-9.373h0l2.982-7.668Z" transform="translate(-131.958 -58.454)" fill="#e6e7e8"/>
        <path id="Path_70" data-name="Path 70" d="M328.109,111.772a12.335,12.335,0,1,1-3.613-8.723,11.884,11.884,0,0,1,3.613,8.723q0,.215-.007.431" transform="translate(-36.245 -2.832)" fill="#9e616a"/>
        <path id="Path_71" data-name="Path 71" d="M404.451,188.437l-1.158-5.072a13.038,13.038,0,0,1,1.8-9.967,9.06,9.06,0,0,0,.279-9.245,7.11,7.11,0,0,0-6.2-3.9h-.308v-.308c0-4.423,3.448-7.546,6.653-7.725a3.394,3.394,0,0,1,1.9-2.4c2.714-1.564,7.96-1.9,11.925.182a3.758,3.758,0,0,1,2.32-3.075,3.7,3.7,0,0,1,2.026-.117,4.587,4.587,0,0,1,1.289-2.956,5.434,5.434,0,0,1,4.817-1.108,12.95,12.95,0,0,1,7.5,4.847,38.212,38.212,0,0,1,4.475,7.754,36.915,36.915,0,0,0,4.413,7.62,12.261,12.261,0,0,0,7.155,4.583,7.353,7.353,0,0,0,7.463-2.993h0l.279-.453.254.467a8.344,8.344,0,0,1-1.535,9.47,11.337,11.337,0,0,1-9.283,3.161,18.166,18.166,0,0,1-9.137-3.849c-3-2.248-4.847-4.734-5.505-7.388a20.059,20.059,0,0,1-.4-2.491c-.2-1.755-.4-3.413-1.476-4.633a7.532,7.532,0,0,0-3.8-1.931h0l-.262-.07a3.416,3.416,0,0,1-1.455,2.479,2.456,2.456,0,0,1-.8.306c1.544,6.213.909,10.97-1.888,14.142-4.721,5.354-13.795,4.253-14.179,4.2h0l-.256-.033-.013-.257a14.271,14.271,0,0,0-.252-2.055c-1.3,3.131-5.671,11.411-6.256,12.246h0Z" transform="translate(-142.806 -56.264)" fill="#2f2e41"/>
    </g>
</svg>
